<svg width="508" height="656" viewBox="0 0 508 656" fill="#7F3CE0" xmlns="http://www.w3.org/2000/svg">
<rect width="508" height="656" fill="white"/>
<path d="M246.8 28.817C245.467 30.1503 238.533 35.217 231.467 39.8837C224.4 44.6837 211.2 53.7504 202 60.017C192.8 66.417 171.733 80.817 155.067 92.1504C138.4 103.484 124.4 113.35 124 114.017C123.467 114.817 104.667 115.35 75.6 115.35L28 115.484L34.1333 121.084C43.4667 129.484 74.6667 158.55 86 169.217C107.333 189.484 117.067 198.017 118.533 198.017C119.467 198.017 129.067 192.15 140.133 184.95C151.067 177.75 164.533 168.95 170 165.35C175.467 161.75 194.933 148.95 213.333 136.95C231.6 124.817 247.333 114.684 248.267 114.417C250.133 113.617 243.467 109.484 347.067 177.617C364.133 188.817 378.933 198.017 379.733 198.017C380.667 198.017 392.533 187.617 406.133 174.95C419.867 162.417 439.733 143.884 450.4 134.017L470 116.017L423.067 115.617C385.6 115.35 375.733 114.95 374.133 113.484C372.933 112.417 357.6 101.75 340 89.7504C322.4 77.7504 304.933 65.7504 301.2 63.0837C297.467 60.417 285.467 52.1504 274.533 44.6837C263.6 37.217 253.467 30.017 252 28.6837C249.467 26.417 249.2 26.417 246.8 28.817Z" fill="#7F3CE0"/>
<path d="M231.281 199.354C206.215 202.554 182.881 208.02 169.281 213.754C139.281 226.554 121.015 237.62 100.615 255.487C79.9481 273.62 60.2148 299.487 48.7481 323.887C45.6814 330.42 42.6148 336.954 41.8148 338.154C41.1481 339.487 40.6148 341.754 40.6148 343.087C40.6148 344.554 40.0814 346.154 39.2814 346.554C38.6148 346.954 37.9481 348.82 37.9481 350.554C37.9481 352.287 37.4148 354.02 36.7481 354.42C36.0814 354.82 35.2814 357.087 34.8814 359.487C34.4814 361.887 33.4148 366.82 32.6148 370.554C25.0148 406.42 26.7481 441.754 38.2148 477.22C40.7481 485.22 41.1481 486.154 45.2814 495.887C50.6148 508.287 62.3481 529.62 67.5481 535.887C68.7481 537.354 74.6148 544.554 80.6148 551.887C86.6148 559.22 92.7481 566.154 94.3481 567.22C95.9481 568.287 102.081 572.954 107.815 577.62C113.548 582.287 122.215 588.554 127.148 591.754C135.948 597.487 160.215 610.02 165.281 611.487C166.748 612.02 171.548 613.62 175.948 615.22C190.748 620.687 209.415 624.687 232.348 627.354C252.748 629.62 251.281 633.087 251.281 581.22V539.22H233.681C213.681 539.22 208.215 537.887 187.815 527.62C153.815 510.687 128.615 480.687 119.015 445.887C110.881 416.554 113.148 390.154 126.348 361.887C143.281 325.354 176.748 298.154 218.615 287.087C229.281 284.287 233.415 283.887 254.615 284.02C279.948 284.02 288.481 285.487 307.281 292.82C332.615 302.82 356.615 321.887 371.015 343.754C378.881 355.354 385.148 368.02 383.948 369.887C383.415 370.687 360.215 371.22 317.148 371.22H251.281L251.015 409.887C250.881 431.087 250.748 449.487 250.748 450.554C250.615 452.42 262.348 452.554 355.815 452.554C431.281 452.554 461.548 452.154 462.881 451.087C463.815 450.154 466.615 449.887 469.015 450.287C471.548 450.687 474.081 450.554 474.881 450.154C475.681 449.62 477.015 442.954 477.948 435.22C480.748 412.554 478.481 381.754 472.481 359.887C471.681 356.954 470.748 352.954 470.348 350.82C469.948 348.82 469.148 346.82 468.481 346.42C467.815 346.02 467.281 344.82 467.281 343.754C467.281 339.22 454.881 314.287 445.548 299.887C423.281 265.754 395.948 241.62 358.215 222.554C320.881 203.754 269.681 194.287 231.281 199.354Z" fill="#7F3CE0"/>
</svg>
